<mxfile host="app.diagrams.net" modified="2024-04-14T12:02:53.878Z" agent="Mozilla/5.0 (X11; Ubuntu; Linux x86_64; rv:109.0) Gecko/20100101 Firefox/116.0" etag="cEf1aAhjnaDgIIStjlOy" version="24.2.5" type="device">
  <diagram name="第 1 页" id="JFYeLecPGXvuvLIBaf32">
    <mxGraphModel dx="2831" dy="1120" grid="1" gridSize="10" guides="1" tooltips="1" connect="1" arrows="1" fold="1" page="1" pageScale="1" pageWidth="827" pageHeight="1169" math="0" shadow="0">
      <root>
        <mxCell id="0" />
        <mxCell id="1" parent="0" />
        <mxCell id="O-qDJZkog2Bs89MLGkKI-1" value="" style="rounded=0;whiteSpace=wrap;html=1;" parent="1" vertex="1">
          <mxGeometry x="-380" y="140" width="1110" height="630" as="geometry" />
        </mxCell>
        <mxCell id="O-qDJZkog2Bs89MLGkKI-2" value="" style="endArrow=none;html=1;rounded=0;exitX=0;exitY=0.25;exitDx=0;exitDy=0;entryX=1;entryY=0.25;entryDx=0;entryDy=0;" parent="1" source="O-qDJZkog2Bs89MLGkKI-1" target="O-qDJZkog2Bs89MLGkKI-1" edge="1">
          <mxGeometry width="50" height="50" relative="1" as="geometry">
            <mxPoint x="390" y="510" as="sourcePoint" />
            <mxPoint x="440" y="460" as="targetPoint" />
          </mxGeometry>
        </mxCell>
        <mxCell id="O-qDJZkog2Bs89MLGkKI-3" value="&lt;p&gt;&lt;b&gt;&lt;font style=&quot;font-size: 14px;&quot;&gt;用户态&lt;/font&gt;&lt;/b&gt;&lt;/p&gt;" style="text;html=1;align=center;verticalAlign=middle;whiteSpace=wrap;rounded=0;" parent="1" vertex="1">
          <mxGeometry x="-380" y="140" width="60" height="30" as="geometry" />
        </mxCell>
        <mxCell id="O-qDJZkog2Bs89MLGkKI-4" value="&lt;p&gt;&lt;b&gt;&lt;font style=&quot;font-size: 14px;&quot;&gt;内核态&lt;/font&gt;&lt;/b&gt;&lt;/p&gt;" style="text;html=1;align=center;verticalAlign=middle;whiteSpace=wrap;rounded=0;" parent="1" vertex="1">
          <mxGeometry x="-380" y="300" width="60" height="30" as="geometry" />
        </mxCell>
        <mxCell id="O-qDJZkog2Bs89MLGkKI-5" value="" style="ellipse;whiteSpace=wrap;html=1;aspect=fixed;strokeWidth=3;" parent="1" vertex="1">
          <mxGeometry x="-320" y="390" width="320" height="320" as="geometry" />
        </mxCell>
        <mxCell id="O-qDJZkog2Bs89MLGkKI-6" value="&lt;b style=&quot;font-size: 20px;&quot;&gt;ring buffer&lt;br&gt;&lt;/b&gt;" style="ellipse;whiteSpace=wrap;html=1;aspect=fixed;strokeWidth=3;" parent="1" vertex="1">
          <mxGeometry x="-280" y="430" width="240" height="240" as="geometry" />
        </mxCell>
        <mxCell id="O-qDJZkog2Bs89MLGkKI-9" value="" style="endArrow=none;html=1;rounded=0;entryX=0;entryY=0;entryDx=0;entryDy=0;exitX=0;exitY=0;exitDx=0;exitDy=0;strokeColor=default;strokeWidth=3;" parent="1" source="O-qDJZkog2Bs89MLGkKI-6" target="O-qDJZkog2Bs89MLGkKI-5" edge="1">
          <mxGeometry width="50" height="50" relative="1" as="geometry">
            <mxPoint x="370" y="540" as="sourcePoint" />
            <mxPoint x="420" y="490" as="targetPoint" />
          </mxGeometry>
        </mxCell>
        <mxCell id="O-qDJZkog2Bs89MLGkKI-10" value="" style="endArrow=none;html=1;rounded=0;entryX=0;entryY=0.5;entryDx=0;entryDy=0;exitX=0;exitY=0.5;exitDx=0;exitDy=0;strokeColor=default;strokeWidth=3;" parent="1" source="O-qDJZkog2Bs89MLGkKI-6" target="O-qDJZkog2Bs89MLGkKI-5" edge="1">
          <mxGeometry width="50" height="50" relative="1" as="geometry">
            <mxPoint x="-235" y="475" as="sourcePoint" />
            <mxPoint x="-263" y="447" as="targetPoint" />
          </mxGeometry>
        </mxCell>
        <mxCell id="O-qDJZkog2Bs89MLGkKI-11" value="" style="endArrow=none;html=1;rounded=0;entryX=0;entryY=1;entryDx=0;entryDy=0;exitX=0;exitY=1;exitDx=0;exitDy=0;strokeColor=default;strokeWidth=3;" parent="1" source="O-qDJZkog2Bs89MLGkKI-6" target="O-qDJZkog2Bs89MLGkKI-5" edge="1">
          <mxGeometry width="50" height="50" relative="1" as="geometry">
            <mxPoint x="-270" y="560" as="sourcePoint" />
            <mxPoint x="-310" y="560" as="targetPoint" />
          </mxGeometry>
        </mxCell>
        <mxCell id="O-qDJZkog2Bs89MLGkKI-12" value="" style="endArrow=none;html=1;rounded=0;entryX=0.5;entryY=1;entryDx=0;entryDy=0;exitX=0.5;exitY=1;exitDx=0;exitDy=0;strokeColor=default;strokeWidth=3;" parent="1" source="O-qDJZkog2Bs89MLGkKI-6" target="O-qDJZkog2Bs89MLGkKI-5" edge="1">
          <mxGeometry width="50" height="50" relative="1" as="geometry">
            <mxPoint x="-235" y="645" as="sourcePoint" />
            <mxPoint x="-263" y="673" as="targetPoint" />
          </mxGeometry>
        </mxCell>
        <mxCell id="O-qDJZkog2Bs89MLGkKI-13" value="" style="endArrow=none;html=1;rounded=0;entryX=1;entryY=1;entryDx=0;entryDy=0;exitX=1;exitY=1;exitDx=0;exitDy=0;strokeColor=default;strokeWidth=3;" parent="1" source="O-qDJZkog2Bs89MLGkKI-6" target="O-qDJZkog2Bs89MLGkKI-5" edge="1">
          <mxGeometry width="50" height="50" relative="1" as="geometry">
            <mxPoint x="-150" y="680" as="sourcePoint" />
            <mxPoint x="-150" y="720" as="targetPoint" />
          </mxGeometry>
        </mxCell>
        <mxCell id="O-qDJZkog2Bs89MLGkKI-14" value="" style="endArrow=none;html=1;rounded=0;entryX=1;entryY=0.5;entryDx=0;entryDy=0;exitX=1;exitY=0.5;exitDx=0;exitDy=0;strokeColor=default;strokeWidth=3;" parent="1" source="O-qDJZkog2Bs89MLGkKI-6" target="O-qDJZkog2Bs89MLGkKI-5" edge="1">
          <mxGeometry width="50" height="50" relative="1" as="geometry">
            <mxPoint x="-65" y="645" as="sourcePoint" />
            <mxPoint x="-37" y="673" as="targetPoint" />
          </mxGeometry>
        </mxCell>
        <mxCell id="O-qDJZkog2Bs89MLGkKI-15" value="" style="endArrow=none;html=1;rounded=0;entryX=1;entryY=0;entryDx=0;entryDy=0;exitX=1;exitY=0;exitDx=0;exitDy=0;strokeColor=default;strokeWidth=3;" parent="1" source="O-qDJZkog2Bs89MLGkKI-6" target="O-qDJZkog2Bs89MLGkKI-5" edge="1">
          <mxGeometry width="50" height="50" relative="1" as="geometry">
            <mxPoint x="-30" y="560" as="sourcePoint" />
            <mxPoint x="10" y="560" as="targetPoint" />
          </mxGeometry>
        </mxCell>
        <mxCell id="O-qDJZkog2Bs89MLGkKI-16" value="" style="endArrow=none;html=1;rounded=0;exitX=0.5;exitY=0;exitDx=0;exitDy=0;strokeColor=default;strokeWidth=3;" parent="1" source="O-qDJZkog2Bs89MLGkKI-6" target="O-qDJZkog2Bs89MLGkKI-5" edge="1">
          <mxGeometry width="50" height="50" relative="1" as="geometry">
            <mxPoint x="-65" y="475" as="sourcePoint" />
            <mxPoint x="-37" y="447" as="targetPoint" />
          </mxGeometry>
        </mxCell>
        <mxCell id="Ml0NDA_pkcqvjj3OsUkI-1" value="&lt;b&gt;&lt;font style=&quot;font-size: 14px;&quot;&gt;1&lt;/font&gt;&lt;/b&gt;" style="text;html=1;align=center;verticalAlign=middle;whiteSpace=wrap;rounded=0;" parent="1" vertex="1">
          <mxGeometry x="-250" y="660" width="60" height="30" as="geometry" />
        </mxCell>
        <mxCell id="Ml0NDA_pkcqvjj3OsUkI-2" value="&lt;font size=&quot;1&quot;&gt;&lt;b style=&quot;font-size: 14px;&quot;&gt;...&lt;/b&gt;&lt;/font&gt;" style="text;html=1;align=center;verticalAlign=middle;whiteSpace=wrap;rounded=0;" parent="1" vertex="1">
          <mxGeometry x="-60" y="590" width="60" height="30" as="geometry" />
        </mxCell>
        <mxCell id="Ml0NDA_pkcqvjj3OsUkI-3" value="&lt;font size=&quot;1&quot;&gt;&lt;b style=&quot;font-size: 14px;&quot;&gt;4&lt;/b&gt;&lt;/font&gt;" style="text;html=1;align=center;verticalAlign=middle;whiteSpace=wrap;rounded=0;" parent="1" vertex="1">
          <mxGeometry x="-60" y="480" width="60" height="30" as="geometry" />
        </mxCell>
        <mxCell id="Ml0NDA_pkcqvjj3OsUkI-4" value="&lt;b&gt;&lt;font style=&quot;font-size: 14px;&quot;&gt;...&lt;/font&gt;&lt;/b&gt;" style="text;html=1;align=center;verticalAlign=middle;whiteSpace=wrap;rounded=0;" parent="1" vertex="1">
          <mxGeometry x="-250" y="410" width="60" height="30" as="geometry" />
        </mxCell>
        <mxCell id="vleGc45WOP6gPPjD99jT-1" value="&lt;b style=&quot;font-size: 20px;&quot;&gt;NIC&lt;br&gt;&lt;/b&gt;" style="rounded=0;whiteSpace=wrap;html=1;" parent="1" vertex="1">
          <mxGeometry x="-280" y="790" width="120" height="30" as="geometry" />
        </mxCell>
        <mxCell id="vleGc45WOP6gPPjD99jT-3" value="" style="endArrow=classic;html=1;rounded=0;exitX=0.5;exitY=0;exitDx=0;exitDy=0;entryX=0.297;entryY=0.956;entryDx=0;entryDy=0;entryPerimeter=0;strokeWidth=3;" parent="1" source="vleGc45WOP6gPPjD99jT-1" target="O-qDJZkog2Bs89MLGkKI-5" edge="1">
          <mxGeometry width="50" height="50" relative="1" as="geometry">
            <mxPoint x="20" y="600" as="sourcePoint" />
            <mxPoint x="70" y="550" as="targetPoint" />
          </mxGeometry>
        </mxCell>
        <mxCell id="vleGc45WOP6gPPjD99jT-4" value="&lt;b&gt;&lt;font style=&quot;font-size: 20px;&quot;&gt;DMA&lt;/font&gt;&lt;/b&gt;" style="edgeLabel;html=1;align=center;verticalAlign=middle;resizable=0;points=[];" parent="vleGc45WOP6gPPjD99jT-3" vertex="1" connectable="0">
          <mxGeometry x="0.0444" relative="1" as="geometry">
            <mxPoint x="3" y="-1" as="offset" />
          </mxGeometry>
        </mxCell>
        <mxCell id="vleGc45WOP6gPPjD99jT-5" value="&lt;b style=&quot;font-size: 20px;&quot;&gt;ksoftirqd&lt;br&gt;&lt;/b&gt;" style="rounded=0;whiteSpace=wrap;html=1;" parent="1" vertex="1">
          <mxGeometry x="50" y="477.5" width="120" height="35" as="geometry" />
        </mxCell>
        <mxCell id="vleGc45WOP6gPPjD99jT-7" value="" style="endArrow=classic;html=1;rounded=0;exitX=1;exitY=0.5;exitDx=0;exitDy=0;entryX=0.5;entryY=1;entryDx=0;entryDy=0;strokeWidth=3;" parent="1" source="vleGc45WOP6gPPjD99jT-1" target="vleGc45WOP6gPPjD99jT-5" edge="1">
          <mxGeometry width="50" height="50" relative="1" as="geometry">
            <mxPoint x="20" y="600" as="sourcePoint" />
            <mxPoint x="70" y="550" as="targetPoint" />
            <Array as="points">
              <mxPoint x="110" y="805" />
            </Array>
          </mxGeometry>
        </mxCell>
        <mxCell id="vleGc45WOP6gPPjD99jT-8" value="&lt;font style=&quot;font-size: 20px;&quot;&gt;&lt;b&gt;IRQ&lt;/b&gt;&lt;/font&gt;" style="edgeLabel;html=1;align=center;verticalAlign=middle;resizable=0;points=[];" parent="vleGc45WOP6gPPjD99jT-7" vertex="1" connectable="0">
          <mxGeometry x="0.4933" relative="1" as="geometry">
            <mxPoint as="offset" />
          </mxGeometry>
        </mxCell>
        <mxCell id="vleGc45WOP6gPPjD99jT-9" value="" style="endArrow=classic;html=1;rounded=0;entryX=1;entryY=0.5;entryDx=0;entryDy=0;strokeWidth=2;exitX=0;exitY=0.5;exitDx=0;exitDy=0;" parent="1" source="vleGc45WOP6gPPjD99jT-5" target="Ml0NDA_pkcqvjj3OsUkI-3" edge="1">
          <mxGeometry width="50" height="50" relative="1" as="geometry">
            <mxPoint x="20" y="600" as="sourcePoint" />
            <mxPoint x="70" y="550" as="targetPoint" />
          </mxGeometry>
        </mxCell>
        <mxCell id="vleGc45WOP6gPPjD99jT-10" value="" style="endArrow=classic;html=1;rounded=0;entryX=0.5;entryY=1;entryDx=0;entryDy=0;exitX=1;exitY=0.5;exitDx=0;exitDy=0;strokeWidth=2;" parent="1" source="vleGc45WOP6gPPjD99jT-5" target="vleGc45WOP6gPPjD99jT-11" edge="1">
          <mxGeometry width="50" height="50" relative="1" as="geometry">
            <mxPoint x="10" y="505" as="sourcePoint" />
            <mxPoint x="210" y="495" as="targetPoint" />
            <Array as="points">
              <mxPoint x="270" y="495" />
              <mxPoint x="270" y="670" />
              <mxPoint x="540" y="670" />
            </Array>
          </mxGeometry>
        </mxCell>
        <mxCell id="Uw__kZCTI2ymkcUh4sdn-3" value="&lt;font style=&quot;font-size: 20px;&quot;&gt;&lt;b&gt;sk_buff&lt;/b&gt;&lt;/font&gt;" style="edgeLabel;html=1;align=center;verticalAlign=middle;resizable=0;points=[];" vertex="1" connectable="0" parent="vleGc45WOP6gPPjD99jT-10">
          <mxGeometry x="-0.3782" relative="1" as="geometry">
            <mxPoint as="offset" />
          </mxGeometry>
        </mxCell>
        <mxCell id="vleGc45WOP6gPPjD99jT-11" value="" style="rounded=0;whiteSpace=wrap;html=1;strokeWidth=2;" parent="1" vertex="1">
          <mxGeometry x="420" y="380" width="240" height="240" as="geometry" />
        </mxCell>
        <mxCell id="vleGc45WOP6gPPjD99jT-12" value="&lt;b&gt;&lt;font style=&quot;font-size: 20px;&quot;&gt;L2网络栈&lt;/font&gt;&lt;/b&gt;" style="rounded=0;whiteSpace=wrap;html=1;strokeWidth=2;" parent="1" vertex="1">
          <mxGeometry x="440" y="410" width="200" height="35" as="geometry" />
        </mxCell>
        <mxCell id="vleGc45WOP6gPPjD99jT-13" value="&lt;b&gt;&lt;font style=&quot;font-size: 20px;&quot;&gt;L2网络栈&lt;/font&gt;&lt;/b&gt;" style="rounded=0;whiteSpace=wrap;html=1;strokeWidth=2;" parent="1" vertex="1">
          <mxGeometry x="440" y="482.5" width="200" height="35" as="geometry" />
        </mxCell>
        <mxCell id="vleGc45WOP6gPPjD99jT-14" value="&lt;b&gt;&lt;font style=&quot;font-size: 20px;&quot;&gt;L2网络栈&lt;/font&gt;&lt;/b&gt;" style="rounded=0;whiteSpace=wrap;html=1;strokeWidth=2;" parent="1" vertex="1">
          <mxGeometry x="440" y="550" width="200" height="35" as="geometry" />
        </mxCell>
        <mxCell id="vleGc45WOP6gPPjD99jT-16" value="&lt;font style=&quot;font-size: 15px;&quot;&gt;&lt;b&gt;网络协议栈&lt;/b&gt;&lt;/font&gt;" style="text;html=1;align=center;verticalAlign=middle;whiteSpace=wrap;rounded=0;" parent="1" vertex="1">
          <mxGeometry x="580" y="590" width="80" height="30" as="geometry" />
        </mxCell>
        <mxCell id="Uw__kZCTI2ymkcUh4sdn-1" value="&lt;b style=&quot;font-size: 20px;&quot;&gt;应用程序&lt;/b&gt;" style="rounded=0;whiteSpace=wrap;html=1;" vertex="1" parent="1">
          <mxGeometry x="420" y="200" width="240" height="50" as="geometry" />
        </mxCell>
        <mxCell id="Uw__kZCTI2ymkcUh4sdn-2" value="" style="endArrow=classic;html=1;rounded=0;entryX=0.5;entryY=1;entryDx=0;entryDy=0;exitX=0.5;exitY=0;exitDx=0;exitDy=0;strokeWidth=2;" edge="1" parent="1" source="vleGc45WOP6gPPjD99jT-11" target="Uw__kZCTI2ymkcUh4sdn-1">
          <mxGeometry width="50" height="50" relative="1" as="geometry">
            <mxPoint x="-30" y="600" as="sourcePoint" />
            <mxPoint x="20" y="550" as="targetPoint" />
          </mxGeometry>
        </mxCell>
        <mxCell id="Uw__kZCTI2ymkcUh4sdn-4" value="&lt;font style=&quot;font-size: 20px;&quot;&gt;&lt;b&gt;1&lt;/b&gt;&lt;/font&gt;" style="ellipse;whiteSpace=wrap;html=1;aspect=fixed;strokeWidth=2;" vertex="1" parent="1">
          <mxGeometry x="-280" y="720" width="30" height="30" as="geometry" />
        </mxCell>
        <mxCell id="Uw__kZCTI2ymkcUh4sdn-5" value="&lt;font style=&quot;font-size: 20px;&quot;&gt;&lt;b&gt;2&lt;/b&gt;&lt;/font&gt;" style="ellipse;whiteSpace=wrap;html=1;aspect=fixed;strokeWidth=2;" vertex="1" parent="1">
          <mxGeometry x="60" y="640" width="30" height="30" as="geometry" />
        </mxCell>
        <mxCell id="Uw__kZCTI2ymkcUh4sdn-6" value="&lt;font style=&quot;font-size: 20px;&quot;&gt;&lt;b&gt;3&lt;/b&gt;&lt;/font&gt;" style="ellipse;whiteSpace=wrap;html=1;aspect=fixed;strokeWidth=2;" vertex="1" parent="1">
          <mxGeometry x="10" y="452.5" width="30" height="30" as="geometry" />
        </mxCell>
        <mxCell id="Uw__kZCTI2ymkcUh4sdn-7" value="&lt;font style=&quot;font-size: 20px;&quot;&gt;&lt;b&gt;3&lt;/b&gt;&lt;/font&gt;" style="ellipse;whiteSpace=wrap;html=1;aspect=fixed;strokeWidth=2;" vertex="1" parent="1">
          <mxGeometry x="280" y="610" width="30" height="30" as="geometry" />
        </mxCell>
        <mxCell id="Uw__kZCTI2ymkcUh4sdn-8" value="&lt;font style=&quot;font-size: 20px;&quot;&gt;&lt;b&gt;4&lt;/b&gt;&lt;/font&gt;" style="ellipse;whiteSpace=wrap;html=1;aspect=fixed;strokeWidth=2;" vertex="1" parent="1">
          <mxGeometry x="460" y="550" width="30" height="30" as="geometry" />
        </mxCell>
        <mxCell id="Uw__kZCTI2ymkcUh4sdn-9" value="&lt;font style=&quot;font-size: 20px;&quot;&gt;&lt;b&gt;5&lt;/b&gt;&lt;/font&gt;" style="ellipse;whiteSpace=wrap;html=1;aspect=fixed;strokeWidth=2;" vertex="1" parent="1">
          <mxGeometry x="460" y="482.5" width="30" height="30" as="geometry" />
        </mxCell>
        <mxCell id="Uw__kZCTI2ymkcUh4sdn-10" value="&lt;font style=&quot;font-size: 20px;&quot;&gt;&lt;b&gt;6&lt;/b&gt;&lt;/font&gt;" style="ellipse;whiteSpace=wrap;html=1;aspect=fixed;strokeWidth=2;" vertex="1" parent="1">
          <mxGeometry x="460" y="412.5" width="30" height="30" as="geometry" />
        </mxCell>
      </root>
    </mxGraphModel>
  </diagram>
</mxfile>
